:SAMPLES-PER-SECOND 30
:FULLY-SPECIFIED
:DEGREES
404
root  42.1058 29.7174 8.05066 -163.468 -67.9121 177.79
RightUpLeg  2.65765 -27.0018 -11.6952
RightLeg  33.1182 -18.6492 -10.2279
RightFoot  -2.81767 0.0282618 1.52703
RightToes  -57.8949 -0.374781 -0.392431
Spine  8.69647 1.97951 -1.62892
Spine1  15.4167 5.00333 -2.99864
HEad  -4.69881 -4.35311 13.6907
LeftShoulder1  0 -2.42657e-020 -4.95415e-022
LeftArm  4.38794 -12.2885 -89.104
LeftForeArm  21.4222 -67.1101 -24.8104
LeftHand  -0.00517723 -0.487203 0.860021
RightShoulder  0 2.42657e-020 1.07489e-018
RightArm  3.08011 2.75427 79.2547
RightForeArm  94.6277 75.5934 43.5669
RightHand  -6.16222 10.8824 -58.6006
LeftUpLeg  -59.1622 17.5061 -18.2591
LeftLeg  32.9097 8.23525 4.57806
LeftFoot  0.541017 -0.00140724 0.298054
LeftToes  9.68099 1.28829e-006 1.15665e-007
405
root  40.6259 29.7049 7.90348 -158.369 -72.2436 172.441
RightUpLeg  1.55665 -23.5052 -12.0755
RightLeg  41.0383 -19.2782 -14.1504
RightFoot  4.5642 0.0783902 -1.58908
RightToes  -59.6111 -0.390878 -0.397203
Spine  8.97601 2.50445 -1.92047
Spine1  15.7876 6.02307 -3.25042
HEad  -9.27613 -8.44133 14.5308
LeftShoulder1  0 -2.42657e-020 -4.95415e-022
LeftArm  6.59839 -16.6274 -91.2994
LeftForeArm  22.939 -65.9276 -23.3629
LeftHand  -0.0235324 -1.23892 1.81644
RightShoulder  0 2.42657e-020 1.07489e-018
RightArm  1.29134 3.74366 77.729
RightForeArm  100.445 76.8181 49.1315
RightHand  -6.01182 9.80828 -62.5968
LeftUpLeg  -57.3366 15.068 -19.6431
LeftLeg  34.687 7.32258 4.37585
LeftFoot  4.15425 -0.0310975 0.857398
LeftToes  7.42643 1.28829e-006 1.15665e-007
406
root  39.4028 29.8121 7.74156 -152.502 -76.6248 167.411
RightUpLeg  -3.94558 -18.6371 -9.54542
RightLeg  52.1433 -16.7451 -18.041
RightFoot  10.8806 0.470021 -4.5544
RightToes  -43.4431 -0.246556 -0.333734
Spine  8.72982 2.38287 -1.86462
Spine1  15.2249 5.78943 -3.26705
HEad  -11.5015 -10.4606 15.2904
LeftShoulder1  0 -2.42657e-020 -4.95415e-022
LeftArm  7.40615 -18.9329 -93.4703
LeftForeArm  27.0906 -66.0418 -23.5037
LeftHand  -0.047221 -0.884501 5.78735
RightShoulder  0 2.42657e-020 1.07489e-018
RightArm  0.91178 4.87129 76.5811
RightForeArm  105.828 77.4179 52.5024
RightHand  -5.82396 9.04102 -65.1809
LeftUpLeg  -56.3136 13.3765 -21.11
LeftLeg  35.4255 4.88051 3.00845
LeftFoot  3.96379 -0.017333 0.639396
LeftToes  12.9217 1.28829e-006 1.15665e-007
407
root  38.2876 30.0346 7.48308 -137.562 -82.1196 152.651
RightUpLeg  -9.24186 -14.9881 -7.02695
RightLeg  59.6288 -6.22217 -9.18843
RightFoot  8.88814 0.142333 -1.45355
RightToes  -47.7088 -0.282804 -0.354401
Spine  8.95422 1.66489 -1.59391
Spine1  15.5484 4.31633 -2.85505
HEad  -14.3127 -12.3688 16.6261
LeftShoulder1  0 -2.42657e-020 -4.95415e-022
LeftArm  8.59664 -21.7703 -95.2915
LeftForeArm  28.3986 -64.395 -21.6966
LeftHand  -0.0613166 -0.94586 7.10013
RightShoulder  0 2.42657e-020 1.07489e-018
RightArm  -0.439286 6.69911 76.2716
RightForeArm  107.386 76.9254 49.5978
RightHand  -5.98791 8.76921 -68.267
LeftUpLeg  -53.4775 8.73049 -20.3736
LeftLeg  35.4783 4.0243 2.48667
LeftFoot  3.37056 -0.0123994 0.51295
LeftToes  13.5664 1.28829e-006 1.15665e-007
408
root  37.2498 30.3204 7.22735 -91.8927 -85.8251 106.704
RightUpLeg  -15.3643 -12.4905 -4.94383
RightLeg  67.0831 -0.260248 -0.658494
RightFoot  4.50587 0.00879326 0.154014
RightToes  -48.9442 -0.29358 -0.359877
Spine  9.5073 0.941227 -1.18466
Spine1  16.5006 2.76971 -2.11592
HEad  -17.1793 -14.1852 17.8652
LeftShoulder1  0 -2.42657e-020 -4.95415e-022
LeftArm  10.0567 -24.9124 -97.5409
LeftForeArm  25.3578 -60.192 -17.9964
LeftHand  -0.0416313 -0.796646 5.66227
RightShoulder  0 2.42657e-020 1.07489e-018
RightArm  -2.88718 8.84702 76.2805
RightForeArm  105.463 75.4379 42.8077
RightHand  -5.93027 8.2215 -71.235
LeftUpLeg  -50.1226 4.15357 -19.102
LeftLeg  34.9644 3.49606 2.11743
LeftFoot  2.89088 -0.0106485 0.421996
LeftToes  12.8419 1.28829e-006 1.15665e-007
409
root  36.3359 30.6373 6.88148 -32.4562 -85.2325 47.7184
RightUpLeg  -23.1979 -9.80656 -2.8674
RightLeg  72.4819 -0.39543 -1.22127
RightFoot  3.10785 0.00985361 0.0143177
RightToes  -50.2742 -0.305309 -0.365511
Spine  9.90306 0.200873 -0.603707
Spine1  17.1293 0.975774 -0.87066
HEad  -19.8546 -15.1824 18.5247
LeftShoulder1  0 -2.42657e-020 -4.95415e-022
LeftArm  10.7367 -27.7359 -98.9237
LeftForeArm  22.4513 -56.4832 -15.4876
LeftHand  -0.0140549 -0.374468 4.00327
RightShoulder  0 2.42657e-020 1.07489e-018
RightArm  -4.471 11.7668 76.3141
RightForeArm  101.069 73.0783 35.3993
RightHand  -6.33795 8.69877 -71.7759
LeftUpLeg  -48.2864 2.19601 -17.9362
LeftLeg  34.6051 1.88685 1.12553
LeftFoot  2.43902 -0.00558013 0.26212
LeftToes  12.725 1.28829e-006 1.15665e-007
410
root  35.4424 30.8822 6.50491 -4.92746 -82.8701 20.5049
RightUpLeg  -31.1196 -7.16903 -1.90394
RightLeg  75.3405 -1.47225 -4.67948
RightFoot  -0.491507 -0.0020159 -0.0925693
RightToes  -45.7255 -0.265759 -0.345128
Spine  10.5596 -0.664441 0.0818419
Spine1  17.9971 -1.4437 1.09682
HEad  -22.7643 -15.5379 19.0484
LeftShoulder1  0 -2.42657e-020 -4.95415e-022
LeftArm  11.4538 -32.1081 -100.212
LeftForeArm  20.318 -51.7774 -12.965
LeftHand  -0.0157623 -0.462749 3.58569
RightShoulder  0 2.42657e-020 1.07489e-018
RightArm  -4.77945 16.3156 75.7201
RightForeArm  95.801 69.3653 27.8497
RightHand  -6.32136 8.4496 -73.2306
LeftUpLeg  -47.3918 1.48675 -16.4038
LeftLeg  35.5084 0.0269948 0.0121917
LeftFoot  1.54412 -0.000951511 0.0706002
LeftToes  13.1666 1.28829e-006 1.15665e-007
411
root  34.601 30.9535 6.10279 8.24805 -80.412 7.8497
RightUpLeg  -39.065 -3.79891 -2.37798
RightLeg  75.6032 -2.21148 -6.99091
RightFoot  -4.26273 -0.00589036 0.219312
RightToes  -42.3031 -0.237138 -0.327759
Spine  11.2566 -1.35567 0.67576
Spine1  18.6971 -3.50765 2.95284
HEad  -25.2565 -15.9742 19.6519
LeftShoulder1  0 -2.42657e-020 -4.95415e-022
LeftArm  12.436 -37.2214 -101.312
LeftForeArm  18.5952 -48.3546 -11.4532
LeftHand  -0.0361883 -1.19462 3.11829
RightShoulder  0 2.42657e-020 1.07489e-018
RightArm  -5.52803 21.6341 74.8652
RightForeArm  93.165 64.9466 22.0539
RightHand  -6.13773 7.9495 -74.9822
LeftUpLeg  -47.962 0.63953 -14.4591
LeftLeg  38.2328 -1.21214 -0.839569
LeftFoot  -0.289221 -9.22227e-005 -0.0365479
LeftToes  13.5081 1.28829e-006 1.15665e-007
412
root  33.7224 30.847 5.69792 15.167 -78.1407 1.36606
RightUpLeg  -46.3197 -0.216718 -4.49202
RightLeg  73.332 -2.66147 -7.34393
RightFoot  -6.82789 0.006541 0.487245
RightToes  -40.4344 -0.221962 -0.317563
Spine  12.0432 -1.73627 1.22062
Spine1  19.4519 -4.79191 4.37545
HEad  -28.098 -16.0265 20.4476
LeftShoulder1  0 -2.42657e-020 -4.95415e-022
LeftArm  15.647 -43.5599 -102.917
LeftForeArm  17.3054 -45.4017 -10.3101
LeftHand  -0.0687655 -1.6251 4.49494
RightShoulder  0 2.42657e-020 1.07489e-018
RightArm  -6.7285 27.0343 72.991
RightForeArm  89.7239 62.2403 19.4685
RightHand  -5.74936 7.34895 -75.7245
LeftUpLeg  -49.1602 -0.882273 -12.2338
LeftLeg  42.1556 -1.4337 -1.14481
LeftFoot  -2.82326 -0.00150968 -0.061272
LeftToes  12.6433 1.28829e-006 1.15665e-007
413
root  32.7708 30.6313 5.28858 19.899 -75.9326 -3.2088
RightUpLeg  -52.2051 3.16577 -7.66237
RightLeg  68.5767 -3.26728 -7.08297
RightFoot  -7.94029 0.0118938 0.548969
RightToes  -41.1227 -0.227514 -0.321376
Spine  12.7862 -1.91911 1.77303
Spine1  20.1912 -5.63404 5.46024
HEad  -30.5007 -16.2527 21.1257
LeftShoulder1  0 -2.42657e-020 -4.95415e-022
LeftArm  18.9647 -49.8168 -104.851
LeftForeArm  16.5018 -44.6755 -10.0477
LeftHand  -0.100879 -2.05567 5.26617
RightShoulder  0 2.42657e-020 1.07489e-018
RightArm  -9.66749 32.7948 70.609
RightForeArm  89.4107 60.8242 18.2992
RightHand  -5.5881 7.06047 -76.3756
LeftUpLeg  -50.3973 -2.90041 -9.55707
LeftLeg  46.7484 -1.26349 -1.18739
LeftFoot  -6.01854 -0.00486019 -0.0924607
LeftToes  10.2485 1.28829e-006 1.15665e-007
414
root  31.791 30.2983 4.86357 24.7175 -73.9841 -7.78818
RightUpLeg  -57.499 6.39057 -11.3818
RightLeg  62.4565 -3.31116 -5.54187
RightFoot  -7.92339 -0.00626444 0.287119
RightToes  -42.2595 -0.23678 -0.327527
Spine  12.9804 -1.84882 2.331
Spine1  20.2174 -5.86732 6.21615
HEad  -32.8318 -16.1468 22.0948
LeftShoulder1  0 -2.42657e-020 -4.95415e-022
LeftArm  24.1123 -56.1076 -107.223
LeftForeArm  15.5851 -45.2286 -10.2459
LeftHand  -0.123785 -1.90386 7.09522
RightShoulder  0 2.42657e-020 1.07489e-018
RightArm  -13.738 38.7237 66.725
RightForeArm  90.2401 61.2396 18.6256
RightHand  -5.34834 6.6151 -77.5751
LeftUpLeg  -52.2554 -4.39748 -6.72306
LeftLeg  52.0085 -0.97971 -1.10841
LeftFoot  -9.26239 -0.0142101 -0.175428
LeftToes  7.88582 1.28829e-006 1.15665e-007
415
root  30.7271 29.837 4.57714 25.1032 -73.1369 -8.40292
RightUpLeg  -61.559 9.19315 -16.6166
RightLeg  55.6826 -2.73656 -3.56249
RightFoot  -5.92263 -0.0294791 -0.192325
RightToes  -45.0708 -0.260205 -0.341938
Spine  12.9171 -1.68146 2.15222
Spine1  20.0819 -5.66325 5.49571
HEad  -34.2951 -16.327 23.5874
LeftShoulder1  0 -2.42657e-020 -4.95415e-022
LeftArm  28.5512 -62.8145 -109.164
LeftForeArm  15.5131 -46.4685 -10.7065
LeftHand  -0.137271 -1.98558 7.56528
RightShoulder  0 2.42657e-020 1.07489e-018
RightArm  -19.465 44.5608 62.3727
RightForeArm  92.3132 62.2922 19.4965
RightHand  -5.369 6.59515 -77.9615
LeftUpLeg  -52.9292 -5.58051 -5.28408
LeftLeg  56.7374 -0.413141 -0.558712
LeftFoot  -12.943 -0.0381673 -0.336486
LeftToes  6.50037 1.28829e-006 1.15665e-007
416
root  29.561 29.3632 4.3756 24.4471 -72.2778 -8.19962
RightUpLeg  -64.1559 10.9006 -21.3258
RightLeg  48.825 -2.07642 -2.12767
RightFoot  -2.38506 -0.0201924 -0.592616
RightToes  -47.4792 -0.280814 -0.353358
Spine  12.5338 -1.47407 2.0767
Spine1  19.5909 -5.29746 4.99008
HEad  -35.7936 -17.2784 23.9366
LeftShoulder1  0 -2.42657e-020 -4.95415e-022
LeftArm  35.2287 -69.7678 -113.643
LeftForeArm  15.219 -48.3104 -11.4325
LeftHand  -0.160786 -1.94994 9.08893
RightShoulder  0 2.42657e-020 1.07489e-018
RightArm  -28.0402 50.5577 54.326
RightForeArm  94.6428 63.7516 20.8238
RightHand  -5.35922 6.54495 -78.2894
LeftUpLeg  -52.8197 -6.77622 -4.17059
LeftLeg  61.052 -0.0829303 -0.140477
LeftFoot  -16.7933 -0.0692577 -0.469208
LeftToes  3.6549 1.28829e-006 1.15665e-007
417
root  28.1931 28.8776 4.1916 24.2551 -71.9434 -9.10413
RightUpLeg  -65.7579 12.6491 -24.537
RightLeg  44.0476 -0.89364 -0.790128
RightFoot  2.35376 0.0252098 -0.849308
RightToes  -49.1333 -0.295239 -0.360694
Spine  11.776 -1.13296 1.83958
Spine1  18.5118 -4.51643 4.23963
HEad  -36.1474 -18.6699 24.1791
LeftShoulder1  0 -2.42657e-020 -4.95415e-022
LeftArm  44.4725 -76.275 -121.128
LeftForeArm  14.749 -50.7775 -12.4952
LeftHand  -0.149127 -1.63972 10.0649
RightShoulder  0 2.42657e-020 1.07489e-018
RightArm  -39.1052 55.6285 43.6363
RightForeArm  96.3785 64.9422 22.0249
RightHand  -5.37944 6.55806 -78.3885
LeftUpLeg  -51.5458 -6.66945 -3.18167
LeftLeg  65.2066 -0.139451 -0.269976
LeftFoot  -20.811 -0.0731672 -0.398448
LeftToes  2.24082 1.28829e-006 1.15665e-007
